<?xml version="1.0" encoding="UTF-8" standalone="no"?>
<!DOCTYPE svg PUBLIC "-//W3C//DTD SVG 1.1//EN" "http://www.w3.org/Graphics/SVG/1.1/DTD/svg11.dtd">
<svg width="100%" height="100%" viewBox="0 0 844 133" version="1.1" xmlns="http://www.w3.org/2000/svg" xmlns:xlink="http://www.w3.org/1999/xlink" xml:space="preserve" xmlns:serif="http://www.serif.com/" style="fill-rule:evenodd;clip-rule:evenodd;stroke-linejoin:round;stroke-miterlimit:2;">
    <g transform="matrix(1,0,0,1,-12.8018,-150.648)">
        <rect id="Artboard1" x="0" y="0" width="856" height="433.5" style="fill:white;"/>
        <g id="Artboard11" serif:id="Artboard1">
            <g transform="matrix(0.750742,0,0,0.750742,-547.205,-1013.9)">
                <g transform="matrix(10.8827,0,0,10.8827,-655.667,-2257.55)">
                    <path d="M128.954,365.927L128.954,363.609L138.832,363.609C139.405,363.609 139.897,363.414 140.315,363.039C140.73,362.657 140.939,362.192 140.939,361.641C140.939,361.092 140.736,360.626 140.326,360.247C139.918,359.869 139.418,359.679 138.832,359.679L132.842,359.679C131.282,359.679 130.119,359.046 129.348,357.782C128.978,357.174 128.792,356.52 128.792,355.821C128.792,354.765 129.181,353.856 129.961,353.098C130.741,352.34 131.684,351.959 132.795,351.959L142.86,351.959L142.86,354.212L132.885,354.212C132.406,354.212 131.999,354.369 131.662,354.686C131.321,355.001 131.153,355.383 131.153,355.831C131.153,356.297 131.321,356.683 131.662,356.999C131.999,357.314 132.406,357.471 132.885,357.471L138.979,357.471C140.736,357.471 142.029,358.175 142.86,359.59C143.245,360.245 143.437,360.945 143.437,361.686C143.437,362.938 142.995,363.955 142.106,364.746C141.219,365.535 140.138,365.927 138.856,365.927L128.954,365.927Z" style="fill:white;fill-rule:nonzero;"/>
                </g>
                <g transform="matrix(10.8827,0,0,10.8827,-656.026,-2257.24)">
                    <path d="M144.665,351.93L146.478,351.93L146.478,354.844L150.452,354.844L150.452,356.485L146.478,356.485L146.478,361.931C146.478,362.094 146.531,362.335 146.636,362.653C146.738,362.971 146.839,363.193 146.937,363.32C147.412,363.969 148.255,364.292 149.463,364.292L150.818,364.292L150.818,365.898C150.747,365.898 150.352,365.906 149.647,365.915C149.121,365.927 148.694,365.927 148.366,365.915C147.899,365.881 147.503,365.817 147.172,365.72C146.43,365.523 145.826,365.115 145.362,364.505C144.898,363.895 144.665,363.211 144.665,362.459L144.665,351.93Z" style="fill:white;fill-rule:nonzero;"/>
                </g>
                <g transform="matrix(10.8827,0,0,10.8827,-656.375,-2227.18)">
                    <path d="M157.366,353.449C156.156,353.449 155.122,353.844 154.252,354.632C153.387,355.424 152.953,356.381 152.953,357.512C152.962,358.643 153.404,359.59 154.272,360.356C155.139,361.12 156.169,361.502 157.366,361.502C158.575,361.502 159.614,361.12 160.488,360.356C161.36,359.59 161.802,358.643 161.815,357.512C161.826,356.381 161.39,355.424 160.505,354.632C159.62,353.844 158.575,353.449 157.366,353.449M157.366,363.18C155.68,363.18 154.23,362.635 153.006,361.539C151.788,360.443 151.177,359.101 151.177,357.512C151.177,355.923 151.788,354.574 153.006,353.47C154.23,352.362 155.68,351.808 157.366,351.808C159.062,351.808 160.526,352.362 161.76,353.47C162.991,354.574 163.608,355.923 163.608,357.512C163.608,359.101 162.991,360.443 161.76,361.539C160.526,362.635 159.062,363.18 157.366,363.18" style="fill:white;fill-rule:nonzero;"/>
                </g>
                <g transform="matrix(10.8827,0,0,10.8827,-654.296,-2228.9)">
                    <path d="M175.843,356.804L175.843,363.18L174.029,363.18L174.029,356.892C174.029,355.975 173.725,355.198 173.112,354.562C172.499,353.929 171.717,353.607 170.761,353.607C169.806,353.607 169.024,353.926 168.41,354.555C167.799,355.186 167.493,355.964 167.493,356.892L167.493,363.18L165.626,363.18L165.626,352.126L167.493,352.126L167.493,353.274C168.107,352.812 168.637,352.495 169.09,352.321C169.639,352.083 170.251,351.966 170.924,351.966C172.293,351.966 173.456,352.441 174.413,353.388C175.364,354.338 175.843,355.475 175.843,356.804" style="fill:white;fill-rule:nonzero;"/>
                </g>
                <g transform="matrix(10.8827,0,0,10.8827,-656.581,-2227.18)">
                    <path d="M188.181,356.646C187.838,354.516 186.461,353.449 184.044,353.449C182.836,353.449 181.794,353.844 180.92,354.632C180.048,355.424 179.616,356.382 179.631,357.512C179.642,358.618 180.052,359.561 180.866,360.339C181.678,361.117 182.657,361.502 183.803,361.502C184.781,361.502 185.708,361.327 186.589,360.974C187.613,360.551 188.263,359.979 188.547,359.261L189.773,360.408C189.273,361.316 188.472,362.011 187.376,362.492C186.374,362.951 185.264,363.18 184.044,363.18C182.336,363.18 180.873,362.637 179.657,361.547C178.443,360.458 177.836,359.112 177.836,357.512C177.836,355.923 178.445,354.574 179.665,353.47C180.888,352.362 182.347,351.808 184.044,351.808C185.875,351.82 187.307,352.223 188.346,353.009C189.577,353.939 190.196,355.381 190.196,357.335C190.196,357.572 190.186,357.818 190.177,358.078L181.388,358.078L181.388,356.662L188.162,356.662L188.181,356.646Z" style="fill:white;fill-rule:nonzero;"/>
                </g>
                <g transform="matrix(10.8827,0,0,10.8827,-654.895,-2257.64)">
                    <path d="M192.081,355.418C192.081,354.68 192.313,354.007 192.775,353.396C193.238,352.788 193.838,352.377 194.581,352.165C194.908,352.073 195.304,352.014 195.765,351.989C196.106,351.968 196.531,351.961 197.042,351.973C197.746,351.996 198.136,352.009 198.209,352.009L198.209,353.591L196.86,353.591C195.669,353.591 194.829,353.903 194.344,354.534C194.245,354.663 194.146,354.886 194.043,355.207C193.939,355.527 193.889,355.764 193.889,355.915L193.889,356.578L197.863,356.578L197.863,358.231L193.889,358.231L193.889,365.933L192.081,365.933L192.081,355.418Z" style="fill:white;fill-rule:nonzero;"/>
                </g>
                <g transform="matrix(10.8827,0,0,10.8827,-655.167,-2257.1)">
                    <rect x="199.306" y="351.917" width="1.861" height="13.908" style="fill:white;"/>
                </g>
                <g transform="matrix(10.8827,0,0,10.8827,-655.45,-2223.98)">
                    <path d="M213.472,356.569C213.134,354.449 211.759,353.389 209.352,353.389C208.149,353.389 207.113,353.78 206.244,354.565C205.376,355.35 204.948,356.306 204.958,357.433C204.971,358.535 205.381,359.473 206.189,360.245C206.997,361.02 207.973,361.407 209.116,361.407C210.089,361.407 211.012,361.231 211.887,360.88C212.908,360.457 213.558,359.888 213.837,359.173L215.06,360.316C214.561,361.22 213.764,361.911 212.671,362.391C211.675,362.849 210.568,363.078 209.352,363.078C207.651,363.078 206.195,362.536 204.987,361.451C203.777,360.368 203.172,359.026 203.172,357.433C203.172,355.851 203.781,354.507 204.995,353.406C206.211,352.304 207.663,351.754 209.352,351.754C211.177,351.765 212.604,352.165 213.639,352.949C214.865,353.874 215.48,355.31 215.48,357.256C215.48,357.49 215.472,357.737 215.46,357.995L206.71,357.995L206.71,356.589L213.455,356.589L213.472,356.569Z" style="fill:white;fill-rule:nonzero;"/>
                </g>
                <g transform="matrix(10.8827,0,0,10.8827,-655.439,-2235.95)">
                    <path d="M225.99,363.994L223.632,363.994L220.941,359.779L218.273,363.994L215.891,363.994L219.785,357.934L215.904,351.894L218.215,351.894L220.929,356.143L223.667,351.894L226.001,351.894L222.131,357.951L225.99,363.994Z" style="fill:white;fill-rule:nonzero;"/>
                </g>
            </g>
            <g transform="matrix(0.165449,0,0,0.165449,317.097,45.3408)">
                <g transform="matrix(446.41,0,0,446.41,3270.61,935.141)">
                </g>
                <text x="3048.52px" y="935.141px" style="font-family:'Urbanist-Regular', 'Urbanist', sans-serif;font-size:446.41px;fill:white;">®</text>
            </g>
        </g>
    </g>
</svg>
