<svg width="241" height="97" viewBox="0 0 241 97" fill="none" xmlns="http://www.w3.org/2000/svg">
<g clip-path="url(#clip0_2015_239)">
<path d="M12.9693 58.791V38.2582H15.8081V56.0355H28.7482V58.791H12.9693Z" fill="white"/>
<path d="M45.197 58.791V38.2582H55.438C58.3315 38.2582 60.1088 38.9959 60.7701 40.4712C61.4314 41.9465 61.3204 43.8442 60.0543 46.1645C58.7882 48.4847 56.5936 49.6448 53.4705 49.6448H47.9525V58.791H45.197ZM47.9525 47.1133H53.1949C55.0379 47.1133 56.198 46.5055 56.6761 45.2899C57.1542 44.0744 57.1266 43.1901 56.5651 42.637C56.0036 42.0839 55.0379 41.8074 53.6763 41.8074H47.9525V47.1133Z" fill="white"/>
<path d="M68.1408 58.791V38.2582H83.8643V40.7897H70.9453V47.3986H81.8596V49.9301H70.9453V58.791H68.1408Z" fill="white"/>
<path d="M96.0694 58.791L87.8926 38.2582H91.1316L99.3084 58.791H96.0694Z" fill="white"/>
<path d="M111.848 58.791V38.2582H114.652V58.791H111.848Z" fill="white"/>
<path d="M136.236 58.791V56.0355H123.296V49.9301H133.537V47.3986H123.296V40.7897H136.236V38.2582H120.491V58.791H136.236Z" fill="white"/>
<path d="M140.231 58.791V38.2582H143.035V58.791H140.231Z" fill="white"/>
<path d="M158.468 58.791V38.2582H161.306V56.0355H174.246V58.791H158.468Z" fill="white"/>
<path d="M190.875 58.791V38.2582H206.598V40.7897H193.679V47.3986H204.594V49.9301H193.679V58.791H190.875Z" fill="white"/>
<path d="M228.618 58.791V56.4595H215.82V38.2582H213.016V58.791H228.618Z" fill="white"/>
<path d="M239.99 58.791V38.2582H240.598L233.029 52.8805L232.753 53.4883H232.422L225.401 38.2582H225.955L232.698 51.5644L239.99 58.791Z" fill="white"/>
<path d="M219.008 30.6435C219.008 32.5959 217.426 34.1782 215.474 34.1782C213.521 34.1782 211.939 32.5959 211.939 30.6435C211.939 28.6911 213.521 27.1089 215.474 27.1089C217.426 27.1089 219.008 28.6911 219.008 30.6435Z" fill="#29ABE2"/>
<path d="M211.139 58.791V38H208.334V58.791H211.139Z" fill="white"/>
<path d="M187.11 58.791V38.2582H180.201V56.0355H179.87V40.7897H177.066V58.791H187.11Z" fill="white"/>
<path d="M154.582 58.791V38.2582H146.161V58.791H148.965V40.7897H151.778V58.791H154.582Z" fill="white"/>
<path d="M83.4796 30.6435C83.4796 32.5959 81.8973 34.1782 79.945 34.1782C77.9926 34.1782 76.4104 32.5959 76.4104 30.6435C76.4104 28.6911 77.9926 27.1089 79.945 27.1089C81.8973 27.1089 83.4796 28.6911 83.4796 30.6435Z" fill="#29ABE2"/>
<path d="M136.236 67.5703V96.4023H133.432V67.5703H136.236Z" fill="#29ABE2"/>
<path d="M12.9693 96.4023V67.5703H15.8081V93.6468H28.7482V96.4023H12.9693Z" fill="#29ABE2"/>
<path d="M47.9525 96.4023V67.5703H45.197V96.4023H47.9525Z" fill="#29ABE2"/>
<path d="M53.4705 96.4023C59.9822 96.4023 63.636 93.3791 63.636 88.583C63.636 83.7868 59.9822 80.7637 53.4705 80.7637H47.9525V93.6468H53.1949C57.3817 93.6468 59.3744 92.2152 59.3744 89.9497C59.3744 87.6841 57.3817 86.2525 53.1949 86.2525H50.708V83.5192H53.4705C58.3315 83.5192 60.8246 84.8853 60.8246 88.583C60.8246 92.2806 58.3315 93.6468 53.4705 93.6468H50.708V96.4023H53.4705Z" fill="#29ABE2"/>
<path d="M68.1408 96.4023V67.5703H83.8643V70.3258H70.9453V80.4225H81.8596V83.178H70.9453V93.6468H83.8643V96.4023H68.1408Z" fill="#242222"/>
<path dM108.956 96.4023V67.5703H106.152V96.4023H108.956Z" fill="#29ABE2"/>
<path d="M112.23 96.4023V67.5703H127.953V70.3258H115.034V80.4225H125.949V83.178H115.034V93.6468H127.953V96.4023H112.23Z" fill="#242222"/>
<path d="M140.231 96.4023V67.5703H155.954V70.3258H143.035V80.4225H153.95V83.178H143.035V93.6468H155.954V96.4023H140.231Z" fill="#242222"/>
<path d="M174.246 96.4023V67.5703H171.442V93.6468H158.523V96.4023H174.246Z" fill="#29ABE2"/>
<path d="M187.054 96.4023V67.5703H177.011V96.4023H179.815V70.3258H184.25V96.4023H187.054Z" fill="#242222"/>
<path d="M208.334 96.4023V67.5703H198.291V96.4023H201.095V70.3258H205.53V96.4023H208.334Z" fill="#242222"/>
<path d="M213.016 96.4023V67.5703H228.739V70.3258H215.82V80.4225H226.734V83.178H215.82V96.4023H213.016Z" fill="#29ABE2"/>
<path d="M240.598 96.4023V67.5703H225.401V70.3258H237.794L232.753 79.1616L227.601 88.2218H230.918L234.157 82.5703L237.395 88.2218H240.598L235.446 79.1616L240.598 70.3258V96.4023Z" fill="#242222"/>
<path d="M103.882 82.0303C103.882 85.3468 101.211 88.0205 97.8943 88.0205C94.5779 88.0205 91.9067 85.3468 91.9067 82.0303C91.9067 78.7139 94.5779 76.0402 97.8943 76.0402C101.211 76.0402 103.882 78.7139 103.882 82.0303ZM94.7107 82.0303C94.7107 83.7868 96.0768 85.1529 97.8943 85.1529C99.7118 85.1529 101.078 83.7868 101.078 82.0303C101.078 80.2738 99.7118 78.9077 97.8943 78.9077C96.0768 78.9077 94.7107 80.2738 94.7107 82.0303Z" fill="#29ABE2"/>
<path d="M194.542 82.0303C194.542 85.3468 191.871 88.0205 188.554 88.0205C185.238 88.0205 182.567 85.3468 182.567 82.0303C182.567 78.7139 185.238 76.0402 188.554 76.0402C191.871 76.0402 194.542 78.7139 194.542 82.0303ZM185.371 82.0303C185.371 83.7868 186.737 85.1529 188.554 85.1529C190.372 85.1529 191.738 83.7868 191.738 82.0303C191.738 80.2738 190.372 78.9077 188.554 78.9077C186.737 78.9077 185.371 80.2738 185.371 82.0303Z" fill="#242222"/>
<path d="M11.9613 0.597656L0.597656 11.9613V85.0387L11.9613 96.4023H229.039L240.402 85.0387V11.9613L229.039 0.597656H11.9613Z" stroke="#29ABE2"/>
</g>
<defs>
<clipPath id="clip0_2015_239">
<rect width="241" height="97" fill="white"/>
</clipPath>
</defs>
</svg>