<?xml version="1.0" encoding="UTF-8" standalone="no"?>
<!DOCTYPE svg PUBLIC "-//W3C//DTD SVG 1.1//EN" "http://www.w3.org/Graphics/SVG/1.1/DTD/svg11.dtd">
<svg width="100%" height="100%" viewBox="0 0 311 144" version="1.1" xmlns="http://www.w3.org/2000/svg" xmlns:xlink="http://www.w3.org/1999/xlink" xml:space="preserve" xmlns:serif="http://www.serif.com/" style="fill-rule:evenodd;clip-rule:evenodd;stroke-linejoin:round;stroke-miterlimit:2;">
    <g transform="matrix(1,0,0,1,-921.959,34.0414)">
        <g transform="matrix(0.148407,0,0,0.139412,1044.92,42.928)">
            <g transform="matrix(129.832,0,0,129.832,1269.28,475)">
            </g>
            <text x="56px" y="475px" style="font-family:'Montserrat-Bold', 'Montserrat';font-weight:700;font-size:129.832px;fill:white;">T<tspan x="147.921px 270.483px 390.708px 513.269px 609.086px 658.811px 758.912px 876.8px 926.526px 1041.82px 1159.7px " y="475px 475px 475px 475px 475px 475px 475px 475px 475px 475px 475px ">ODOS EN UNO</tspan></text>
        </g>
        <g transform="matrix(1.28063,0,0,1.28496,845.422,-524.949)">
            <path d="M111.179,477.077C103.735,477.077 96.876,475.909 90.6,473.572C84.325,471.235 78.894,467.924 74.306,463.64C69.719,459.355 66.149,454.313 63.595,448.514C61.042,442.715 59.765,436.397 59.765,429.559C59.765,422.634 61.042,416.294 63.595,410.538C66.149,404.782 69.719,399.762 74.306,395.478C78.894,391.193 84.325,387.883 90.6,385.546C96.876,383.209 103.692,382.04 111.049,382.04C118.493,382.04 125.33,383.209 131.562,385.546C137.794,387.883 143.204,391.193 147.791,395.478C152.379,399.762 155.949,404.782 158.503,410.538C161.056,416.294 162.333,422.634 162.333,429.559C162.333,436.397 161.056,442.715 158.503,448.514C155.949,454.313 152.379,459.355 147.791,463.64C143.204,467.924 137.794,471.235 131.562,473.572C125.33,475.909 118.536,477.077 111.179,477.077ZM111.049,452.279C113.905,452.279 116.567,451.76 119.034,450.721C121.5,449.683 123.664,448.19 125.525,446.242C127.386,444.295 128.836,441.914 129.875,439.101C130.913,436.288 131.433,433.107 131.433,429.559C131.433,426.01 130.913,422.829 129.875,420.016C128.836,417.203 127.386,414.823 125.525,412.875C123.664,410.928 121.5,409.435 119.034,408.396C116.567,407.357 113.905,406.838 111.049,406.838C108.193,406.838 105.531,407.357 103.064,408.396C100.597,409.435 98.434,410.928 96.573,412.875C94.712,414.823 93.262,417.203 92.223,420.016C91.185,422.829 90.665,426.01 90.665,429.559C90.665,433.107 91.185,436.288 92.223,439.101C93.262,441.914 94.712,444.295 96.573,446.242C98.434,448.19 100.597,449.683 103.064,450.721C105.531,451.76 108.193,452.279 111.049,452.279Z" style="fill:white;fill-rule:nonzero;"/>
        </g>
        <g transform="matrix(1.28063,0,0,1.28496,831.123,-524.949)">
            <path d="M237.891,474.995L203.36,433.674L203.36,475L173.498,475L173.498,384.117L198.686,384.117L233.221,425.443L233.221,384.117L311.765,384.117L311.765,407.228L268.012,407.228L268.012,417.874L306.442,417.874L306.442,439.945L268.012,439.945L268.012,451.89L313.453,451.89L313.453,475L237.891,475L237.891,474.995Z" style="fill:white;"/>
        </g>
    </g>
</svg>
