<?xml version="1.0" encoding="UTF-8" standalone="no"?>
<!DOCTYPE svg PUBLIC "-//W3C//DTD SVG 1.1//EN" "http://www.w3.org/Graphics/SVG/1.1/DTD/svg11.dtd">
<svg width="100%" height="100%" viewBox="0 0 315 299" version="1.1" xmlns="http://www.w3.org/2000/svg" xmlns:xlink="http://www.w3.org/1999/xlink" xml:space="preserve" xmlns:serif="http://www.serif.com/" style="fill-rule:evenodd;clip-rule:evenodd;stroke-linejoin:round;stroke-miterlimit:2;">
    <g transform="matrix(1,0,0,1,-607.763,381.167)">
        <g transform="matrix(3.96733,0,0,3.96733,-8914.72,-6128.93)">
            <g transform="matrix(4.16667,0,0,4.16667,0,1108.8)">
                <path d="M590.205,82.258C590.003,82.216 589.801,82.173 589.599,82.13C589.496,81.951 589.393,81.772 589.29,81.594C589.187,81.772 589.083,81.951 588.98,82.13C588.778,82.173 588.576,82.216 588.375,82.259C588.513,82.412 588.65,82.565 588.789,82.719C588.767,82.924 588.746,83.129 588.724,83.334C588.913,83.251 589.101,83.167 589.29,83.083C589.478,83.167 589.667,83.251 589.856,83.334C589.834,83.129 589.812,82.924 589.791,82.719C589.929,82.565 590.067,82.412 590.205,82.258" style="fill:rgb(164,33,34);fill-rule:nonzero;"/>
            </g>
            <g transform="matrix(4.16667,0,0,4.16667,0,1138.9)">
                <rect x="588.77" y="76.582" width="1.027" height="4.541" style="fill:rgb(28,46,79);"/>
            </g>
            <g transform="matrix(4.16667,0,0,4.16667,0,1138.9)">
                <path d="M584.268,76.582L587.763,76.582L587.763,77.444L586.52,77.444L586.52,81.123L585.493,81.123L585.493,77.444L584.268,77.444L584.268,76.582Z" style="fill:rgb(28,46,79);fill-rule:nonzero;"/>
            </g>
            <g transform="matrix(4.16667,0,0,4.16667,0,1187.56)">
                <path d="M585.353,74.541C584.667,74.541 584.248,73.914 584.248,73.024C584.248,72.141 584.654,71.484 585.35,71.484C586.056,71.484 586.444,72.183 586.444,73.002C586.444,73.885 586.047,74.541 585.353,74.541M585.373,70.667C584.036,70.667 583.162,71.685 583.162,73.044C583.162,74.339 583.955,75.358 585.302,75.358C586.63,75.358 587.529,74.458 587.529,72.967C587.529,71.71 586.768,70.667 585.373,70.667" style="fill:rgb(28,46,79);fill-rule:nonzero;"/>
            </g>
            <g transform="matrix(4.16667,0,0,4.16667,0,1138.9)">
                <path d="M581.455,79.192L581.727,78.228C581.8,77.964 581.868,77.619 581.935,77.353L581.949,77.353C582.019,77.618 582.099,77.958 582.177,78.227L582.46,79.192L581.455,79.192ZM582.654,76.582L581.31,76.582L579.924,81.123L580.986,81.123L581.306,79.957L582.612,79.957L582.962,81.123L584.068,81.123L582.654,76.582Z" style="fill:rgb(28,46,79);fill-rule:nonzero;"/>
            </g>
            <g transform="matrix(4.16667,0,0,4.16667,0,1187.6)">
                <path d="M579.529,70.736L583.025,70.736L583.025,71.598L581.782,71.598L581.782,75.279L580.755,75.279L580.755,71.598L579.529,71.598L579.529,70.736Z" style="fill:rgb(28,46,79);fill-rule:nonzero;"/>
            </g>
            <g transform="matrix(4.16667,0,0,4.16667,0,1138.9)">
                <path d="M576.291,76.582L577.318,76.582L577.318,80.262L579.125,80.262L579.125,81.123L576.291,81.123L576.291,76.582Z" style="fill:rgb(28,46,79);fill-rule:nonzero;"/>
            </g>
            <g transform="matrix(4.16667,0,0,4.16667,0,1187.54)">
                <path d="M577.362,73.382C576.604,73.114 576.109,72.701 576.109,72.037C576.109,71.263 576.759,70.674 577.827,70.674C578.345,70.674 578.719,70.777 578.987,70.903L578.76,71.726C578.58,71.64 578.253,71.511 577.812,71.511C577.365,71.511 577.151,71.717 577.151,71.95C577.151,72.238 577.403,72.366 577.992,72.588C578.796,72.889 579.169,73.306 579.169,73.948C579.169,74.707 578.588,75.358 577.338,75.358C576.823,75.358 576.308,75.218 576.054,75.075L576.262,74.227C576.534,74.373 576.962,74.512 577.401,74.512C577.872,74.512 578.123,74.316 578.123,74.017C578.123,73.738 577.906,73.574 577.362,73.382" style="fill:rgb(28,46,79);fill-rule:nonzero;"/>
            </g>
            <g transform="matrix(4.16667,0,0,4.16667,0,1234.05)">
                <path d="M579.644,69.514L578.703,69.514L578.703,67.773L577.153,67.773L577.153,69.514L576.212,69.514L576.212,65.355L577.153,65.355L577.153,66.954L578.703,66.954L578.703,65.355L579.644,65.355L579.644,69.514Z" style="fill:rgb(28,46,79);fill-rule:nonzero;"/>
            </g>
            <g transform="matrix(4.16667,0,0,4.16667,0,1233.96)">
                <path d="M582.245,68.845C581.618,68.845 581.234,68.271 581.234,67.456C581.234,66.647 581.606,66.046 582.243,66.046C582.89,66.046 583.245,66.686 583.245,67.436C583.245,68.244 582.881,68.845 582.245,68.845M582.265,65.298C581.04,65.298 580.24,66.23 580.24,67.474C580.24,68.66 580.966,69.593 582.199,69.593C583.415,69.593 584.239,68.768 584.239,67.404C584.239,66.253 583.541,65.298 582.265,65.298" style="fill:rgb(28,46,79);fill-rule:nonzero;"/>
            </g>
            <g transform="matrix(4.16667,0,0,4.16667,0,1234.33)">
                <path d="M588.299,67.621C588.299,68.904 587.65,69.514 586.562,69.514C585.512,69.514 584.9,68.931 584.9,67.61L584.9,65.287L585.84,65.287L585.84,67.679C585.84,68.397 586.116,68.764 586.593,68.764C587.087,68.764 587.359,68.415 587.359,67.679L587.359,65.287L588.299,65.287L588.299,67.621Z" style="fill:rgb(28,46,79);fill-rule:nonzero;"/>
            </g>
            <g transform="matrix(4.16667,0,0,4.16667,0,1233.93)">
                <path d="M590.102,69.593C589.631,69.593 589.159,69.464 588.928,69.334L589.118,68.557C589.367,68.691 589.758,68.818 590.16,68.818C590.592,68.818 590.821,68.639 590.821,68.365C590.821,68.11 590.623,67.959 590.125,67.784C589.431,67.538 588.978,67.16 588.978,66.552C588.978,65.843 589.573,65.304 590.551,65.304C591.025,65.304 591.367,65.398 591.612,65.513L591.405,66.268C591.24,66.189 590.94,66.07 590.537,66.07C590.127,66.07 589.932,66.26 589.932,66.472C589.932,66.737 590.162,66.853 590.702,67.057C591.438,67.332 591.779,67.714 591.779,68.302C591.779,68.997 591.247,69.593 590.102,69.593" style="fill:rgb(28,46,79);fill-rule:nonzero;"/>
            </g>
            <g transform="matrix(4.16667,0,0,4.16667,0,1138.9)">
                <path d="M592.16,81.123L591.218,81.123L591.218,76.582L592.414,76.582L593.357,78.247C593.629,78.723 593.894,79.292 594.099,79.805L594.116,79.803C594.053,79.203 594.034,78.592 594.034,77.906L594.034,76.582L594.976,76.582L594.976,81.123L593.901,81.123L592.927,79.374C592.656,78.884 592.358,78.302 592.138,77.77L592.116,77.772C592.147,78.374 592.16,79.016 592.16,79.758L592.16,81.123Z" style="fill:rgb(28,46,79);fill-rule:nonzero;"/>
            </g>
            <g transform="matrix(4.16667,0,0,4.16667,0,1187.6)">
                <path d="M592.166,70.736L594.964,70.736L594.964,71.578L593.193,71.578L593.193,72.524L594.864,72.524L594.864,73.357L593.193,73.357L593.193,74.438L595.061,74.438L595.061,75.279L592.166,75.279L592.166,70.736Z" style="fill:rgb(28,46,79);fill-rule:nonzero;"/>
            </g>
            <g transform="matrix(4.16667,0,0,4.16667,0,1234.05)">
                <path d="M595.053,69.514L592.403,69.514L592.403,65.355L594.964,65.355L594.964,66.125L593.343,66.125L593.343,66.991L594.873,66.991L594.873,67.754L593.343,67.754L593.343,68.743L595.053,68.743L595.053,69.514Z" style="fill:rgb(28,46,79);fill-rule:nonzero;"/>
            </g>
            <g transform="matrix(4.16667,0,0,4.16667,0,1187.09)">
                <path d="M589.557,72.831L589.155,72.831L589.155,71.58C589.228,71.561 589.372,71.545 589.618,71.545C590.087,71.548 590.372,71.761 590.372,72.176C590.372,72.571 590.067,72.831 589.557,72.831M591.198,74.076C591.084,73.658 590.906,73.357 590.591,73.23L590.591,73.208C590.982,73.068 591.393,72.667 591.393,72.092C591.393,71.674 591.244,71.355 590.972,71.14C590.648,70.883 590.176,70.78 589.502,70.78C588.956,70.78 588.467,70.822 588.138,70.877L588.138,75.358L589.155,75.358L589.155,73.574L589.461,73.574C589.883,73.58 590.074,73.731 590.201,74.299C590.33,74.861 590.443,75.226 590.513,75.358L591.564,75.358C591.476,75.182 591.338,74.59 591.198,74.076" style="fill:rgb(28,46,79);fill-rule:nonzero;"/>
            </g>
        </g>
    </g>
</svg>
