<?xml version="1.0" encoding="UTF-8" standalone="no"?>
<!DOCTYPE svg PUBLIC "-//W3C//DTD SVG 1.1//EN" "http://www.w3.org/Graphics/SVG/1.1/DTD/svg11.dtd">
<svg width="100%" height="100%" viewBox="0 0 382 384" version="1.1" xmlns="http://www.w3.org/2000/svg" xmlns:xlink="http://www.w3.org/1999/xlink" xml:space="preserve" xmlns:serif="http://www.serif.com/" style="fill-rule:evenodd;clip-rule:evenodd;stroke-linejoin:round;stroke-miterlimit:2;">
    <g transform="matrix(1,0,0,1,-942.918,-241.944)">
        <g transform="matrix(167.738,0,0,167.738,89.9726,-1786.51)">
            <path d="M6.377,14.161L6.247,14.173C6.049,14.173 5.885,14.127 5.734,14.037L5.676,14.029C5.576,14.058 5.476,14.082 5.372,14.108L5.355,14.09C5.383,13.995 5.409,13.899 5.436,13.806L5.426,13.733C5.219,13.399 5.225,12.986 5.455,12.678C5.701,12.357 6.027,12.224 6.419,12.309C6.804,12.39 7.052,12.64 7.143,13.023C7.266,13.55 6.912,14.074 6.377,14.161ZM7.327,12.971C7.203,12.453 6.756,12.098 6.219,12.093L6.001,12.116C5.247,12.266 4.86,13.102 5.225,13.773L5.23,13.826C5.183,14.001 5.133,14.179 5.085,14.354L5.105,14.377C5.29,14.33 5.472,14.282 5.656,14.232L5.698,14.238C5.935,14.357 6.183,14.394 6.444,14.344C7.069,14.221 7.478,13.588 7.327,12.971Z" style="fill:rgb(254,255,255);"/>
        </g>
        <g transform="matrix(167.738,0,0,167.738,89.9726,-1786.51)">
            <path d="M6.515,13.773L6.397,13.756C6.135,13.681 5.94,13.519 5.784,13.302C5.727,13.223 5.667,13.138 5.653,13.038C5.629,12.915 5.662,12.812 5.753,12.731L5.907,12.709L5.93,12.739L6.027,12.973L6.023,13.018L5.954,13.113L5.949,13.177C6.04,13.331 6.171,13.441 6.336,13.509L6.394,13.494L6.481,13.391L6.544,13.373L6.709,13.451L6.749,13.469L6.795,13.558C6.787,13.678 6.698,13.739 6.589,13.769L6.515,13.773Z" style="fill:white;"/>
        </g>
    </g>
</svg>
